<svg width="98" height="32" viewBox="0 0 98 32" fill="none" xmlns="http://www.w3.org/2000/svg">
<g clip-path="url(#clip0_206_953)">
<path d="M16.2234 3.31326V3.34624C16.2234 3.87383 16.108 4.40142 15.8772 4.87955C15.5145 5.65445 14.7725 7.08883 13.2227 9.75976C12.0192 11.8536 11.1618 13.5188 10.6507 14.8213C10.1396 13.5188 9.2823 11.8536 8.07873 9.75976C6.54542 7.08883 5.78701 5.65445 5.42429 4.87955C5.19347 4.40142 5.07806 3.87383 5.07806 3.34624V3.31326H0C0 4.53332 0.29677 5.37417 2.44011 8.49025C4.59993 11.6228 6.01783 13.7826 6.67732 14.9038C8.14468 17.3933 8.57335 19.2894 8.57335 20.5094C8.57335 23.0649 8.49091 25.7194 8.30956 28.4233L8.26009 29.1817H12.9919L12.9425 28.4233C12.7611 25.7194 12.6787 23.0649 12.6787 20.5094C12.6787 17.9539 13.1403 17.3933 14.6077 14.9038C15.2507 13.7826 16.6851 11.6393 18.8449 8.49025C20.9882 5.37417 21.285 4.53332 21.285 3.31326H16.2069H16.2234Z" fill="#27A577"/>
<path d="M67.8612 29.2971C62.5029 29.2971 58.48 25.3072 58.48 20.0148C58.48 14.7224 62.6018 10.7655 67.8612 10.7655C73.1206 10.7655 77.3084 14.8378 77.3084 20.0148C77.3084 25.1918 73.1536 29.2971 67.8612 29.2971ZM67.8612 13.3705C65.3057 13.3705 63.4426 16.1568 63.4426 19.9818C63.4426 23.8069 65.3881 26.6757 67.8612 26.6757C70.3343 26.6757 72.3128 23.7904 72.3128 19.9818C72.3128 16.1733 70.4497 13.3705 67.8612 13.3705Z" fill="#27A577"/>
<path d="M88.5526 29.2971C83.1943 29.2971 79.1714 25.3072 79.1714 20.0148C79.1714 14.7224 83.2932 10.7655 88.5526 10.7655C93.812 10.7655 97.9998 14.8378 97.9998 20.0148C97.9998 25.1918 93.845 29.2971 88.5526 29.2971ZM88.5526 13.3705C85.9971 13.3705 84.134 16.1568 84.134 19.9818C84.134 23.8069 86.0795 26.6757 88.5526 26.6757C91.0257 26.6757 93.0042 23.7904 93.0042 19.9818C93.0042 16.1733 91.1411 13.3705 88.5526 13.3705Z" fill="#27A577"/>
<path d="M26.5609 29.2971C21.2026 29.2971 17.1797 25.3072 17.1797 20.0148C17.1797 14.7224 21.3015 10.7655 26.5609 10.7655C31.8203 10.7655 36.0081 14.8378 36.0081 20.0148C36.0081 25.1918 31.8533 29.2971 26.5609 29.2971ZM26.5609 13.3705C24.0054 13.3705 22.1423 16.1568 22.1423 19.9818C22.1423 23.8069 24.0878 26.6757 26.5609 26.6757C29.034 26.6757 31.0125 23.7904 31.0125 19.9818C31.0125 16.1733 29.1494 13.3705 26.5609 13.3705Z" fill="#27A577"/>
<path d="M56.4689 18.2012L56.403 17.7725C55.8424 15.2335 54.5069 13.354 52.3306 12.035C51.0611 11.2766 49.7586 10.9303 48.4891 11.0128C47.302 11.0787 46.2798 11.4909 45.439 12.2164C44.9114 12.678 44.5652 13.1891 44.3014 13.964C44.3014 13.997 44.3014 14.0135 44.2849 14.0464V14.0794C44.2849 14.1289 44.2684 14.1618 44.2519 14.1948C44.2189 14.3597 44.153 14.6565 44.1859 14.9203C44.1859 14.9203 45.3071 13.7826 46.4942 13.5683C46.7415 13.5188 47.0053 13.4859 47.2855 13.4694C49.8575 13.4694 51.7371 16.2557 51.7371 20.0808C51.7371 23.9058 49.8246 26.7746 47.2855 26.7746C44.7465 26.7746 42.768 23.8398 42.768 20.0808C42.768 13.3869 44.9279 6.54475 41.8942 3.93977C40.9709 3.14839 39.7179 3.01649 39.2068 3H38.3L38.4319 3.70895C38.7946 5.40713 38.9595 8.45727 38.7781 11.6063C38.7287 12.2328 38.6627 12.8923 38.6133 13.5683C38.5308 14.9532 38.4484 16.5195 38.267 18.0528C38.1022 19.5037 38.1681 20.9546 38.4649 22.356C39.1409 25.4226 40.9545 27.5495 43.8562 28.6706C44.9279 29.0828 46.016 29.2806 47.1536 29.2806C48.2913 29.2806 48.2088 29.2312 48.7364 29.1487C51.7206 28.6706 53.9794 27.0878 55.4467 24.4499C56.5184 22.5044 56.8646 20.394 56.4854 18.1682V18.2012H56.4689Z" fill="#27A577"/>
</g>
<defs>
<clipPath id="clip0_206_953">
<rect width="97.9394" height="32" fill="white"/>
</clipPath>
</defs>
</svg>
